<svg xmlns="http://www.w3.org/2000/svg" xmlns:svg="http://www.w3.org/2000/svg" id="Layer_1" width="164.6" height="201.008" x="0" y="0" enable-background="new 0 0 141 72" version="1.1" viewBox="0 0 164.6 201.008" xml:space="preserve"><metadata id="metadata4263"/><path style="fill:#1e2c5c" id="path3899" d="M 90.959707,191.29341 V 64.546408 c 0,-2.764 -2.266,-5.004 -5.063,-5.004 H 24.022708 c -2.795,0 -5.062,2.24 -5.062,5.004 V 191.29341 c 0,2.765 2.268,5.007 5.062,5.007 h 61.874999 c 2.796,0 5.062,-2.242 5.062,-5.007 z m -1.819,-125.218002 c 0,2.352 -1.924,4.259 -4.295,4.259 -2.369999,0 -4.292999,-1.905 -4.292999,-4.259 0,-2.355 1.922,-4.261 4.292999,-4.261 2.37,0 4.295,1.906 4.295,4.261 z m -68.585999,0 c 0,-2.355 1.92,-4.261 4.291,-4.261 2.373,0 4.299,1.905 4.299,4.261 0,2.352 -1.926,4.259 -4.299,4.259 -2.371,0 -4.291,-1.907 -4.291,-4.259 z m 0,124.017002 c 0,-2.354 1.92,-4.26 4.291,-4.26 2.373,0 4.299,1.905 4.299,4.26 0,2.353 -1.926,4.259 -4.299,4.259 -2.371,0 -4.291,-1.907 -4.291,-4.259 z m 59.998,0 c 0,-2.354 1.923,-4.26 4.292999,-4.26 2.37,0 4.294,1.905 4.294,4.26 0,2.353 -1.923,4.259 -4.294,4.259 -2.368999,0 -4.292999,-1.907 -4.292999,-4.259 z"/><rect style="fill:#454545" id="rect3901" width="3.713" height="7.428" x="75.8" y="-26.387" transform="rotate(90)"/><polygon style="fill:#454545" id="polygon3903" points="14.4 70.141 14.4 66.428 16.258 64.572 16.258 71.998" transform="rotate(90,15.70815,75.250559)"/><polygon style="fill:#454545" id="polygon3905" points="19.97 71.998 19.97 64.572 21.829 66.428 21.829 70.141" transform="rotate(90,15.70815,75.250559)"/><rect style="fill:#b68b2d" id="rect3907" width="1.312" height="1.668" x="77" y="-23.51" transform="rotate(90)"/><rect style="fill:#454545" id="rect3909" width="3.713" height="7.428" x="83" y="-26.387" transform="rotate(90)"/><polygon style="fill:#454545" id="polygon3911" points="21.6 70.141 21.6 66.428 23.458 64.572 23.458 71.998" transform="rotate(90,15.70815,75.250559)"/><polygon style="fill:#454545" id="polygon3913" points="27.17 71.998 27.17 64.572 29.029 66.428 29.029 70.141" transform="rotate(90,15.70815,75.250559)"/><rect style="fill:#b68b2d" id="rect3915" width="1.312" height="1.668" x="84.2" y="-23.51" transform="rotate(90)"/><rect style="fill:#454545" id="rect3917" width="3.713" height="7.428" x="90.2" y="-26.387" transform="rotate(90)"/><polygon style="fill:#454545" id="polygon3919" points="28.8 70.141 28.8 66.428 30.658 64.572 30.658 71.998" transform="rotate(90,15.70815,75.250559)"/><polygon style="fill:#454545" id="polygon3921" points="34.37 71.998 34.37 64.572 36.229 66.428 36.229 70.141" transform="rotate(90,15.70815,75.250559)"/><rect style="fill:#b68b2d" id="rect3923" width="1.312" height="1.668" x="91.4" y="-23.51" transform="rotate(90)"/><rect style="fill:#454545" id="rect3925" width="3.713" height="7.428" x="97.4" y="-26.387" transform="rotate(90)"/><polygon style="fill:#454545" id="polygon3927" points="36 70.141 36 66.428 37.858 64.572 37.858 71.998" transform="rotate(90,15.70815,75.250559)"/><polygon style="fill:#454545" id="polygon3929" points="41.57 71.998 41.57 64.572 43.429 66.428 43.429 70.141" transform="rotate(90,15.70815,75.250559)"/><rect style="fill:#b68b2d" id="rect3931" width="1.312" height="1.668" x="98.601" y="-23.51" transform="rotate(90)"/><rect style="fill:#454545" id="rect3933" width="3.713" height="7.428" x="104.6" y="-26.387" transform="rotate(90)"/><polygon style="fill:#454545" id="polygon3935" points="43.2 70.141 43.2 66.428 45.058 64.572 45.058 71.998" transform="rotate(90,15.70815,75.250559)"/><polygon style="fill:#454545" id="polygon3937" points="48.77 71.998 48.77 64.572 50.629 66.428 50.629 70.141" transform="rotate(90,15.70815,75.250559)"/><rect style="fill:#b68b2d" id="rect3939" width="1.312" height="1.668" x="105.8" y="-23.51" transform="rotate(90)"/><rect style="fill:#454545" id="rect3941" width="3.713" height="7.428" x="111.8" y="-26.387" transform="rotate(90)"/><polygon style="fill:#454545" id="polygon3943" points="50.4 70.141 50.4 66.428 52.258 64.572 52.258 71.998" transform="rotate(90,15.70815,75.250559)"/><polygon style="fill:#454545" id="polygon3945" points="55.97 71.998 55.97 64.572 57.829 66.428 57.829 70.141" transform="rotate(90,15.70815,75.250559)"/><rect style="fill:#b68b2d" id="rect3947" width="1.312" height="1.668" x="113" y="-23.51" transform="rotate(90)"/><rect style="fill:#454545" id="rect3949" width="3.713" height="7.428" x="119" y="-26.387" transform="rotate(90)"/><polygon style="fill:#454545" id="polygon3951" points="57.601 70.141 57.601 66.428 59.458 64.572 59.458 71.998" transform="rotate(90,15.70815,75.250559)"/><polygon style="fill:#454545" id="polygon3953" points="63.17 71.998 63.17 64.572 65.029 66.428 65.029 70.141" transform="rotate(90,15.70815,75.250559)"/><rect style="fill:#b68b2d" id="rect3955" width="1.312" height="1.668" x="120.201" y="-23.51" transform="rotate(90)"/><rect style="fill:#454545" id="rect3957" width="3.713" height="7.428" x="126.201" y="-26.387" transform="rotate(90)"/><polygon style="fill:#454545" id="polygon3959" points="64.801 70.141 64.801 66.428 66.659 64.572 66.659 71.998" transform="rotate(90,15.70815,75.250559)"/><polygon style="fill:#454545" id="polygon3961" points="70.371 71.998 70.371 64.572 72.229 66.428 72.229 70.141" transform="rotate(90,15.70815,75.250559)"/><rect style="fill:#b68b2d" id="rect3963" width="1.312" height="1.668" x="127.401" y="-23.51" transform="rotate(90)"/><rect style="fill:#454545" id="rect3965" width="3.713" height="7.428" x="133.399" y="-26.387" transform="rotate(90)"/><polygon style="fill:#454545" id="polygon3967" points="72 70.141 72 66.428 73.857 64.572 73.857 71.998" transform="rotate(90,15.70815,75.250559)"/><polygon style="fill:#454545" id="polygon3969" points="77.568 71.998 77.568 64.572 79.43 66.428 79.43 70.141" transform="rotate(90,15.70815,75.250559)"/><rect style="fill:#b68b2d" id="rect3971" width="1.312" height="1.668" x="134.601" y="-23.51" transform="rotate(90)"/><rect style="fill:#454545" id="rect3973" width="3.713" height="7.428" x="140.601" y="-26.387" transform="rotate(90)"/><polygon style="fill:#454545" id="polygon3975" points="79.2 70.141 79.2 66.428 81.059 64.572 81.059 71.998" transform="rotate(90,15.70815,75.250559)"/><polygon style="fill:#454545" id="polygon3977" points="84.771 71.998 84.771 64.572 86.63 66.428 86.63 70.141" transform="rotate(90,15.70815,75.250559)"/><rect style="fill:#b68b2d" id="rect3979" width="1.312" height="1.668" x="141.801" y="-23.51" transform="rotate(90)"/><rect style="fill:#454545" id="rect3981" width="3.714" height="7.428" x="147.801" y="-26.387" transform="rotate(90)"/><polygon style="fill:#454545" id="polygon3983" points="86.4 70.141 86.4 66.428 88.259 64.572 88.259 71.998" transform="rotate(90,15.70815,75.250559)"/><polygon style="fill:#454545" id="polygon3985" points="91.971 71.998 91.971 64.572 93.829 66.428 93.829 70.141" transform="rotate(90,15.70815,75.250559)"/><rect style="fill:#b68b2d" id="rect3987" width="1.312" height="1.668" x="149" y="-23.51" transform="rotate(90)"/><rect style="fill:#454545" id="rect3989" width="3.713" height="7.428" x="155" y="-26.387" transform="rotate(90)"/><polygon style="fill:#454545" id="polygon3991" points="93.602 70.141 93.602 66.428 95.458 64.572 95.458 71.998" transform="rotate(90,15.70815,75.250559)"/><polygon style="fill:#454545" id="polygon3993" points="99.171 71.998 99.171 64.572 101.029 66.428 101.029 70.141" transform="rotate(90,15.70815,75.250559)"/><rect style="fill:#b68b2d" id="rect3995" width="1.312" height="1.668" x="156.201" y="-23.51" transform="rotate(90)"/><rect style="fill:#454545" id="rect3997" width="3.713" height="7.428" x="162.201" y="-26.387" transform="rotate(90)"/><polygon style="fill:#454545" id="polygon3999" points="100.8 70.141 100.8 66.428 102.659 64.572 102.659 71.998" transform="rotate(90,15.70815,75.250559)"/><polygon style="fill:#454545" id="polygon4001" points="106.37 71.998 106.37 64.572 108.229 66.428 108.229 70.141" transform="rotate(90,15.70815,75.250559)"/><rect style="fill:#b68b2d" id="rect4003" width="1.312" height="1.668" x="163.399" y="-23.51" transform="rotate(90)"/><rect style="fill:#454545" id="rect4005" width="3.713" height="7.428" x="169.399" y="-26.387" transform="rotate(90)"/><polygon style="fill:#454545" id="polygon4007" points="108.001 70.141 108.001 66.428 109.857 64.572 109.857 71.998" transform="rotate(90,15.70815,75.250559)"/><polygon style="fill:#454545" id="polygon4009" points="113.57 71.998 113.57 64.572 115.43 66.428 115.43 70.141" transform="rotate(90,15.70815,75.250559)"/><rect style="fill:#b68b2d" id="rect4011" width="1.312" height="1.668" x="170.603" y="-23.51" transform="rotate(90)"/><rect style="fill:#454545" id="rect4013" width="3.713" height="7.428" x="176.603" y="-26.387" transform="rotate(90)"/><polygon style="fill:#454545" id="polygon4015" points="115.2 70.141 115.2 66.428 117.061 64.572 117.061 71.998" transform="rotate(90,15.70815,75.250559)"/><polygon style="fill:#454545" id="polygon4017" points="120.771 71.998 120.771 64.572 122.63 66.428 122.63 70.141" transform="rotate(90,15.70815,75.250559)"/><rect style="fill:#b68b2d" id="rect4019" width="1.312" height="1.668" x="177.801" y="-23.51" transform="rotate(90)"/><rect style="fill:#454545" id="rect4021" width="3.713" height="7.427" x="75.57" y="-90.96" transform="rotate(90)"/><polygon style="fill:#454545" id="polygon4023" points="14.17 5.566 14.17 1.854 16.028 -.001 16.028 7.425" transform="rotate(90,15.70815,75.250559)"/><polygon style="fill:#454545" id="polygon4025" points="19.74 7.425 19.74 -.001 21.599 1.854 21.599 5.566" transform="rotate(90,15.70815,75.250559)"/><rect style="fill:#b68b2d" id="rect4027" width="1.312" height="1.668" x="76.77" y="-88.084" transform="rotate(90)"/><rect style="fill:#454545" id="rect4029" width="3.713" height="7.427" x="82.77" y="-90.96" transform="rotate(90)"/><polygon style="fill:#454545" id="polygon4031" points="21.37 5.566 21.37 1.854 23.228 -.001 23.228 7.425" transform="rotate(90,15.70815,75.250559)"/><polygon style="fill:#454545" id="polygon4033" points="26.94 7.425 26.94 -.001 28.799 1.854 28.799 5.566" transform="rotate(90,15.70815,75.250559)"/><rect style="fill:#b68b2d" id="rect4035" width="1.312" height="1.668" x="83.97" y="-88.084" transform="rotate(90)"/><rect style="fill:#454545" id="rect4037" width="3.713" height="7.427" x="89.97" y="-90.96" transform="rotate(90)"/><polygon style="fill:#454545" id="polygon4039" points="28.57 5.566 28.57 1.854 30.428 -.001 30.428 7.425" transform="rotate(90,15.70815,75.250559)"/><polygon style="fill:#454545" id="polygon4041" points="34.14 7.425 34.14 -.001 35.999 1.854 35.999 5.566" transform="rotate(90,15.70815,75.250559)"/><rect style="fill:#b68b2d" id="rect4043" width="1.312" height="1.668" x="91.17" y="-88.084" transform="rotate(90)"/><rect style="fill:#454545" id="rect4045" width="3.713" height="7.427" x="97.17" y="-90.96" transform="rotate(90)"/><polygon style="fill:#454545" id="polygon4047" points="35.771 5.566 35.771 1.854 37.628 -.001 37.628 7.425" transform="rotate(90,15.70815,75.250559)"/><polygon style="fill:#454545" id="polygon4049" points="41.34 7.425 41.34 -.001 43.199 1.854 43.199 5.566" transform="rotate(90,15.70815,75.250559)"/><rect style="fill:#b68b2d" id="rect4051" width="1.312" height="1.668" x="98.371" y="-88.084" transform="rotate(90)"/><rect style="fill:#454545" id="rect4053" width="3.713" height="7.427" x="104.37" y="-90.96" transform="rotate(90)"/><polygon style="fill:#454545" id="polygon4055" points="42.97 5.566 42.97 1.854 44.828 -.001 44.828 7.425" transform="rotate(90,15.70815,75.250559)"/><polygon style="fill:#454545" id="polygon4057" points="48.54 7.425 48.54 -.001 50.399 1.854 50.399 5.566" transform="rotate(90,15.70815,75.250559)"/><rect style="fill:#b68b2d" id="rect4059" width="1.312" height="1.668" x="105.57" y="-88.084" transform="rotate(90)"/><rect style="fill:#454545" id="rect4061" width="3.713" height="7.427" x="111.57" y="-90.96" transform="rotate(90)"/><polygon style="fill:#454545" id="polygon4063" points="50.17 5.566 50.17 1.854 52.028 -.001 52.028 7.425" transform="rotate(90,15.70815,75.250559)"/><polygon style="fill:#454545" id="polygon4065" points="55.74 7.425 55.74 -.001 57.599 1.854 57.599 5.566" transform="rotate(90,15.70815,75.250559)"/><rect style="fill:#b68b2d" id="rect4067" width="1.312" height="1.668" x="112.771" y="-88.084" transform="rotate(90)"/><rect style="fill:#454545" id="rect4069" width="3.712" height="7.427" x="118.771" y="-90.96" transform="rotate(90)"/><polygon style="fill:#454545" id="polygon4071" points="57.371 5.566 57.371 1.854 59.229 -.001 59.229 7.425" transform="rotate(90,15.70815,75.250559)"/><polygon style="fill:#454545" id="polygon4073" points="62.939 7.425 62.939 -.001 64.799 1.854 64.799 5.566" transform="rotate(90,15.70815,75.250559)"/><rect style="fill:#b68b2d" id="rect4075" width="1.312" height="1.668" x="119.972" y="-88.084" transform="rotate(90)"/><rect style="fill:#454545" id="rect4077" width="3.713" height="7.427" x="125.972" y="-90.96" transform="rotate(90)"/><polygon style="fill:#454545" id="polygon4079" points="64.57 5.566 64.57 1.854 66.43 -.001 66.43 7.425" transform="rotate(90,15.70815,75.250559)"/><polygon style="fill:#454545" id="polygon4081" points="70.141 7.425 70.141 -.001 71.999 1.854 71.999 5.566" transform="rotate(90,15.70815,75.250559)"/><rect style="fill:#b68b2d" id="rect4083" width="1.312" height="1.668" x="127.171" y="-88.084" transform="rotate(90)"/><rect style="fill:#454545" id="rect4085" width="3.713" height="7.427" x="133.17" y="-90.96" transform="rotate(90)"/><polygon style="fill:#454545" id="polygon4087" points="71.771 5.566 71.771 1.854 73.628 -.001 73.628 7.425" transform="rotate(90,15.70815,75.250559)"/><polygon style="fill:#454545" id="polygon4089" points="77.34 7.425 77.34 -.001 79.197 1.854 79.197 5.566" transform="rotate(90,15.70815,75.250559)"/><rect style="fill:#b68b2d" id="rect4091" width="1.312" height="1.668" x="134.37" y="-88.084" transform="rotate(90)"/><rect style="fill:#454545" id="rect4093" width="3.713" height="7.427" x="140.37" y="-90.96" transform="rotate(90)"/><polygon style="fill:#454545" id="polygon4095" points="78.971 5.566 78.971 1.854 80.828 -.001 80.828 7.425" transform="rotate(90,15.70815,75.250559)"/><polygon style="fill:#454545" id="polygon4097" points="84.54 7.425 84.54 -.001 86.398 1.854 86.398 5.566" transform="rotate(90,15.70815,75.250559)"/><rect style="fill:#b68b2d" id="rect4099" width="1.312" height="1.668" x="141.569" y="-88.084" transform="rotate(90)"/><rect style="fill:#454545" id="rect4101" width="3.714" height="7.427" x="147.569" y="-90.96" transform="rotate(90)"/><polygon style="fill:#454545" id="polygon4103" points="86.171 5.566 86.171 1.854 88.027 -.001 88.027 7.425" transform="rotate(90,15.70815,75.250559)"/><polygon style="fill:#454545" id="polygon4105" points="91.74 7.425 91.74 -.001 93.6 1.854 93.6 5.566" transform="rotate(90,15.70815,75.250559)"/><rect style="fill:#b68b2d" id="rect4107" width="1.312" height="1.668" x="148.771" y="-88.084" transform="rotate(90)"/><rect style="fill:#454545" id="rect4109" width="3.713" height="7.427" x="154.771" y="-90.96" transform="rotate(90)"/><polygon style="fill:#454545" id="polygon4111" points="93.37 5.566 93.37 1.854 95.229 -.001 95.229 7.425" transform="rotate(90,15.70815,75.250559)"/><polygon style="fill:#454545" id="polygon4113" points="98.939 7.425 98.939 -.001 100.8 1.854 100.8 5.566" transform="rotate(90,15.70815,75.250559)"/><rect style="fill:#b68b2d" id="rect4115" width="1.312" height="1.668" x="155.972" y="-88.084" transform="rotate(90)"/><rect style="fill:#454545" id="rect4117" width="3.713" height="7.427" x="161.972" y="-90.96" transform="rotate(90)"/><polygon style="fill:#454545" id="polygon4119" points="100.57 5.566 100.57 1.854 102.43 -.001 102.43 7.425" transform="rotate(90,15.70815,75.250559)"/><polygon style="fill:#454545" id="polygon4121" points="106.141 7.425 106.141 -.001 107.999 1.854 107.999 5.566" transform="rotate(90,15.70815,75.250559)"/><rect style="fill:#b68b2d" id="rect4123" width="1.312" height="1.668" x="163.17" y="-88.084" transform="rotate(90)"/><rect style="fill:#454545" id="rect4125" width="3.713" height="7.427" x="169.17" y="-90.96" transform="rotate(90)"/><polygon style="fill:#454545" id="polygon4127" points="107.771 5.566 107.771 1.854 109.628 -.001 109.628 7.425" transform="rotate(90,15.70815,75.250559)"/><polygon style="fill:#454545" id="polygon4129" points="113.341 7.425 113.341 -.001 115.199 1.854 115.199 5.566" transform="rotate(90,15.70815,75.250559)"/><rect style="fill:#b68b2d" id="rect4131" width="1.312" height="1.668" x="170.371" y="-88.084" transform="rotate(90)"/><rect style="fill:#454545" id="rect4133" width="3.713" height="7.427" x="176.371" y="-90.96" transform="rotate(90)"/><polygon style="fill:#454545" id="polygon4135" points="114.971 5.566 114.971 1.854 116.829 -.001 116.829 7.425" transform="rotate(90,15.70815,75.250559)"/><polygon style="fill:#454545" id="polygon4137" points="120.54 7.425 120.54 -.001 122.398 1.854 122.398 5.566" transform="rotate(90,15.70815,75.250559)"/><rect style="fill:#b68b2d" id="rect4139" width="1.312" height="1.668" x="177.569" y="-88.084" transform="rotate(90)"/><text id="text4141" x="75.593" y="-80.191" font-size="2.5" style="font-size:2.5px;line-height:0%;font-family:OCRA;fill:#fff" transform="rotate(90)">D0</text><text id="text4143" x="84.238" y="-78.694" font-size="2.5" style="font-size:2.54636264px;line-height:0%;font-family:OCRA;fill:#fff" transform="matrix(0,0.98179265,-1.018545,0,0,0)">D1</text><text id="text4145" x="90.877" y="-79.376" font-size="2.5" style="font-size:2.52449059px;line-height:0%;font-family:OCRA;fill:#fff" transform="matrix(0,0.99029883,-1.0097962,0,0,0)">D2</text><text id="text4147" x="97.133" y="-80.219" font-size="2.5" style="font-size:2.49913454px;line-height:0%;font-family:OCRA;fill:#fff" transform="matrix(0,1.0003463,-0.99965382,0,0,0)">D3</text><text id="text4149" x="106.451" y="-78.563" font-size="2.5" style="font-size:2.55063438px;line-height:0%;font-family:OCRA;fill:#fff" transform="matrix(0,0.98014836,-1.0202537,0,0,0)">D4</text><text id="text4151" x="110.785" y="-80.192" font-size="2.5" style="font-size:2.5px;line-height:0%;font-family:OCRA;fill:#fff" transform="rotate(90)">3V3</text><text id="text4153" x="118.025" y="-80.062" font-size="2.5" style="font-size:2.50398254px;line-height:0%;font-family:OCRA;fill:#fff" transform="matrix(0,0.99840953,-1.001593,0,0,0)">GND</text><text id="text4155" x="127.146" y="-79.414" font-size="2.5" style="font-size:2.52449059px;line-height:0%;font-family:OCRA;fill:#fff" transform="matrix(0,0.99029883,-1.0097962,0,0,0)">D5</text><text id="text4157" x="133.226" y="-80.143" font-size="2.5" style="font-size:2.50155497px;line-height:0%;font-family:OCRA;fill:#fff" transform="matrix(0,0.99937838,-1.000622,0,0,0)">D6</text><text id="text4159" x="143.279" y="-78.563" font-size="2.5" style="font-size:2.55063438px;line-height:0%;font-family:OCRA;fill:#fff" transform="matrix(0,0.98014836,-1.0202537,0,0,0)">D7</text><text id="text4161" x="147.211" y="-80.378" font-size="2.5" style="font-size:2.49431467px;line-height:0%;font-family:OCRA;fill:#fff" transform="matrix(0,1.0022793,-0.99772588,0,0,0)">D8</text><text id="text4163" x="157.668" y="-78.563" font-size="2.5" style="font-size:2.55063438px;line-height:0%;font-family:OCRA;fill:#fff" transform="matrix(0,0.98014836,-1.0202537,0,0,0)">RX</text><text id="text4165" x="165.107" y="-78.563" font-size="2.5" style="font-size:2.55063438px;line-height:0%;font-family:OCRA;fill:#fff" transform="matrix(0,0.98014836,-1.0202537,0,0,0)">TX</text><text id="text4167" x="168.484" y="-80.062" font-size="2.5" style="font-size:2.50398254px;line-height:0%;font-family:OCRA;fill:#fff" transform="matrix(0,0.99840953,-1.001593,0,0,0)">GND</text><text id="text4169" x="175.804" y="-80.219" font-size="2.5" style="font-size:2.49913454px;line-height:0%;font-family:OCRA;fill:#fff" transform="matrix(0,1.0003463,-0.99965382,0,0,0)">3V3</text><text id="text4171" x="-183.435" y="29.557" font-size="2.5" transform="matrix(0,-0.98343415,1.0168449,0,0,0)" style="font-size:2.54211235px;line-height:0%;font-family:OCRA;fill:#fff">Vin</text><text id="text4173" x="-174.023" y="30.013" font-size="2.5" transform="rotate(-90)" style="font-size:2.5px;line-height:0%;font-family:OCRA;fill:#fff">GND</text><text id="text4175" x="-166.576" y="30.013" font-size="2.5" transform="rotate(-90)" style="font-size:2.5px;line-height:0%;font-family:OCRA;fill:#fff">RST</text><text id="text4177" x="-161.855" y="29.458" font-size="2.5" transform="matrix(0,-0.98014836,1.0202537,0,0,0)" style="font-size:2.55063438px;line-height:0%;font-family:OCRA;fill:#fff">EN</text><text id="text4179" x="-152.578" y="30.018" font-size="2.5" transform="rotate(-90)" style="font-size:2.5px;line-height:0%;font-family:OCRA;fill:#fff">3V3</text><text id="text4181" x="-145.429" y="30.013" font-size="2.5" transform="rotate(-90)" style="font-size:2.5px;line-height:0%;font-family:OCRA;fill:#fff">GND</text><text id="text4183" x="-136.969" y="30.013" font-size="2.5" transform="rotate(-90)" style="font-size:2.5px;line-height:0%;font-family:OCRA;fill:#fff">SK</text><text id="text4185" x="-129.523" y="30.017" font-size="2.5" transform="rotate(-90)" style="font-size:2.5px;line-height:0%;font-family:OCRA;fill:#fff">S0</text><text id="text4187" x="-122.647" y="29.954" font-size="2.5" transform="matrix(0,-0.99776311,1.0022419,0,0,0)" style="font-size:2.50560498px;line-height:0%;font-family:OCRA;fill:#fff">SC</text><text id="text4189" x="-115.423" y="29.954" font-size="2.5" transform="matrix(0,-0.99776311,1.0022419,0,0,0)" style="font-size:2.50560498px;line-height:0%;font-family:OCRA;fill:#fff">S1</text><text id="text4191" x="-107.939" y="29.993" font-size="2.5" transform="matrix(0,-0.9990555,1.0009454,0,0,0)" style="font-size:2.50236344px;line-height:0%;font-family:OCRA;fill:#fff">S2</text><text id="text4193" x="-101.166" y="30.018" font-size="2.5" transform="rotate(-90)" style="font-size:2.5px;line-height:0%;font-family:OCRA;fill:#fff">S3</text><text id="text4195" x="-94.698" y="29.725" font-size="2.5" transform="matrix(0,-0.99029883,1.0097962,0,0,0)" style="font-size:2.52449059px;line-height:0%;font-family:OCRA;fill:#fff">VU</text><text id="text4197" x="-88.022" y="29.971" font-size="2.5" transform="matrix(0,-0.99840953,1.001593,0,0,0)" style="font-size:2.50398254px;line-height:0%;font-family:OCRA;fill:#fff">GND</text><text id="text4199" x="-79.054" y="30.017" font-size="2.5" transform="rotate(-90)" style="font-size:2.5px;line-height:0%;font-family:OCRA;fill:#fff">A0</text><rect style="fill:#bec0c2" id="rect4201" width="17.333" height="21.833" x="183.675" y="-65.86" transform="rotate(90)"/><rect style="fill:#bec0c2" id="rect4203" width="7.833" height="8" x="183.504" y="-77.36" transform="rotate(90)"/><circle style="fill:#231f20" id="circle4205" cx="187.425" cy="-73.276" r="2.75" transform="rotate(90)"/><rect style="fill:#bec0c2" id="rect4207" width="7.833" height="8" x="183.504" y="-40.561" transform="rotate(90)"/><circle style="fill:#231f20" id="circle4209" cx="187.425" cy="-36.477" r="2.75" transform="rotate(90)"/><text id="text4211" x="69.195" y="182.341" font-size="2.5" style="font-size:2.5px;line-height:0%;font-family:OCRA;fill:#fff">FLASH</text><text id="text4213" x="34.361" y="182.339" font-size="2.5" style="font-size:2.5px;line-height:0%;font-family:OCRA;fill:#fff">RST</text><rect style="fill:#5f5758" id="rect4215" width="43.5" height="39.033" x="80.675" y="-74.527" transform="rotate(90)"/><rect style="fill:#b68b2d" id="rect4217" width="1.312" height="11.834" x="61.904" y="-72.192" transform="rotate(90)"/><rect style="fill:#b68b2d" id="rect4219" width="11.099" height="1.168" x="62.01" y="-61.525" transform="rotate(90)"/><rect style="fill:#b68b2d" id="rect4221" width="11.099" height="1.168" x="62.01" y="-57.721" transform="rotate(90)"/><rect style="fill:#b68b2d" id="rect4223" width="11.099" height="1.168" x="62.01" y="-53.916" transform="rotate(90)"/><rect style="fill:#b68b2d" id="rect4225" width="11.099" height="1.168" x="62.01" y="-50.111" transform="rotate(90)"/><rect style="fill:#b68b2d" id="rect4227" width="11.099" height="1.168" x="62.01" y="-46.305" transform="rotate(90)"/><rect style="fill:#b68b2d" id="rect4229" width="11.099" height="1.168" x="62.01" y="-42.502" transform="rotate(90)"/><rect style="fill:#b68b2d" id="rect4231" width="1.312" height="4.973" x="71.797" y="-61.525" transform="rotate(90)"/><rect style="fill:#b68b2d" id="rect4233" width="1.312" height="4.168" x="62.01" y="-56.916" transform="rotate(90)"/><rect style="fill:#b68b2d" id="rect4235" width="1.312" height="4.973" x="71.797" y="-53.916" transform="rotate(90)"/><rect style="fill:#b68b2d" id="rect4237" width="1.312" height="4.976" x="62.01" y="-50.111" transform="rotate(90)"/><rect style="fill:#b68b2d" id="rect4239" width="1.312" height="4.973" x="71.797" y="-46.305" transform="rotate(90)"/><rect style="fill:#b68b2d" id="rect4241" width="1.312" height="5.992" x="62.141" y="-42.549" transform="rotate(90)"/><rect style="fill:#b68b2d" id="rect4243" width="18.582" height="1.168" x="62.56" y="-37.725" transform="rotate(90)"/><rect style="fill:#b68b2d" id="rect4245" width="1.312" height="24.312" x="76.037" y="-60.941" transform="rotate(90)"/><rect style="fill:#524b4c" id="rect4247" width="9.209" height="8.264" x="167.308" y="-65.102" transform="rotate(90)"/><rect style="fill:#4d4648" id="rect4249" width="15.945" height="6.217" x="129.995" y="-67.186" transform="rotate(90)"/><text xml:space="preserve" style="font-style:normal;font-weight:400;line-height:0%;font-family:sans-serif;letter-spacing:0;word-spacing:0;fill:#000;fill-opacity:1;stroke:none;stroke-width:1px;stroke-linecap:butt;stroke-linejoin:miter;stroke-opacity:1" id="text4265" x="130.946" y="-44.707" transform="rotate(90)"><tspan id="tspan4267" x="130.946" y="-44.707" style="font-style:normal;font-variant:normal;font-weight:400;font-stretch:normal;font-size:3.75px;line-height:1.25;font-family:sans-serif;-inkscape-font-specification:sans-serif;fill:#fff">Lolin</tspan></text><text id="text4251" x="130.613" y="-49.585" transform="rotate(90)" style="line-height:0%"><tspan id="tspan4253" x="130.613" y="-49.585" font-size="7" style="font-size:7px;font-family:OCRA;fill:#fff">NodeMcu v3</tspan></text><text xml:space="preserve" style="font-style:normal;font-weight:400;font-size:5.33333349px;line-height:125%;font-family:Sans;letter-spacing:0;word-spacing:0;fill:#000;fill-opacity:1;stroke:none;stroke-width:1px;stroke-linecap:butt;stroke-linejoin:miter;stroke-opacity:1" id="text4881" x="135.131" y="101.208"><tspan id="tspan4879" x="135.131" y="101.208">SDA</tspan></text><text xml:space="preserve" style="font-style:normal;font-weight:400;font-size:5.33333349px;line-height:125%;font-family:Sans;letter-spacing:0;word-spacing:0;fill:#000;fill-opacity:1;stroke:none;stroke-width:1px;stroke-linecap:butt;stroke-linejoin:miter;stroke-opacity:1" id="text4881-7" x="135.131" y="108.734"><tspan id="tspan4879-4" x="135.131" y="108.734">SCL</tspan></text><text xml:space="preserve" style="font-style:normal;font-weight:400;font-size:5.33333349px;line-height:125%;font-family:Sans;letter-spacing:0;word-spacing:0;fill:#000;fill-opacity:1;stroke:none;stroke-width:1px;stroke-linecap:butt;stroke-linejoin:miter;stroke-opacity:1" id="text4881-8" x="135.131" y="116.259"><tspan id="tspan4879-8" x="135.131" y="116.259">GND</tspan></text><text xml:space="preserve" style="font-style:normal;font-weight:400;font-size:5.33333349px;line-height:125%;font-family:Sans;letter-spacing:0;word-spacing:0;fill:#000;fill-opacity:1;stroke:none;stroke-width:1px;stroke-linecap:butt;stroke-linejoin:miter;stroke-opacity:1" id="text4881-6" x="135.131" y="123.714"><tspan id="tspan4879-89" x="135.131" y="123.714">VIN</tspan></text><text xml:space="preserve" style="font-style:normal;font-weight:400;font-size:13.33333302px;line-height:125%;font-family:Sans;letter-spacing:0;word-spacing:0;fill:#000;fill-opacity:1;stroke:none;stroke-width:1px;stroke-linecap:butt;stroke-linejoin:miter;stroke-opacity:1" id="text5034" x="124.636" y="132.604"><tspan id="tspan5032" x="124.636" y="132.604" style="font-size:8px">BME280</tspan></text><rect style="fill:#454545" id="rect4021-39-5" width="3.713" height="7.427" x="97.581" y="-133.328" transform="rotate(90)"/><polygon style="fill:#454545" id="polygon4023-0-9" points="14.17 1.854 16.028 -.001 16.028 7.425 14.17 5.566" transform="rotate(90,25.887091,107.44012)"/><polygon style="fill:#454545" id="polygon4025-8-6" points="19.74 -.001 21.599 1.854 21.599 5.566 19.74 7.425" transform="rotate(90,25.887091,107.44012)"/><rect style="fill:#b68b2d" id="rect4027-8-2" width="1.312" height="1.668" x="98.781" y="-130.452" transform="rotate(90)"/><rect style="fill:#454545" id="rect4029-5-1" width="3.713" height="7.427" x="104.781" y="-133.328" transform="rotate(90)"/><polygon style="fill:#454545" id="polygon4031-0-7" points="21.37 1.854 23.228 -.001 23.228 7.425 21.37 5.566" transform="rotate(90,25.887091,107.44012)"/><polygon style="fill:#454545" id="polygon4033-9-8" points="26.94 -.001 28.799 1.854 28.799 5.566 26.94 7.425" transform="rotate(90,25.887091,107.44012)"/><rect style="fill:#b68b2d" id="rect4035-6-5" width="1.312" height="1.668" x="105.981" y="-130.452" transform="rotate(90)"/><rect style="fill:#454545" id="rect4037-3-7" width="3.713" height="7.427" x="111.981" y="-133.328" transform="rotate(90)"/><polygon style="fill:#454545" id="polygon4039-8-4" points="28.57 1.854 30.428 -.001 30.428 7.425 28.57 5.566" transform="rotate(90,25.887091,107.44012)"/><polygon style="fill:#454545" id="polygon4041-5-1" points="34.14 -.001 35.999 1.854 35.999 5.566 34.14 7.425" transform="rotate(90,25.887091,107.44012)"/><rect style="fill:#b68b2d" id="rect4043-6-8" width="1.312" height="1.668" x="113.181" y="-130.452" transform="rotate(90)"/><rect style="fill:#454545" id="rect4045-1-5" width="3.713" height="7.427" x="119.181" y="-133.328" transform="rotate(90)"/><polygon style="fill:#454545" id="polygon4047-1-9" points="35.771 1.854 37.628 -.001 37.628 7.425 35.771 5.566" transform="rotate(90,25.887091,107.44012)"/><polygon style="fill:#454545" id="polygon4049-5-7" points="41.34 -.001 43.199 1.854 43.199 5.566 41.34 7.425" transform="rotate(90,25.887091,107.44012)"/><rect style="fill:#b68b2d" id="rect4051-9-5" width="1.312" height="1.668" x="120.382" y="-130.452" transform="rotate(90)"/><path style="fill:none;fill-rule:evenodd;stroke:#000;stroke-width:1px;stroke-linecap:butt;stroke-linejoin:miter;stroke-opacity:1" id="path5705" d="m 86.415707,98.371407 44.036503,0.409612"/><path style="fill:none;fill-rule:evenodd;stroke:#000;stroke-width:1px;stroke-linecap:butt;stroke-linejoin:miter;stroke-opacity:1" id="path5707" d="m 86.415707,105.57041 44.036503,0.41061"/><rect style="fill:#b68b2d" id="rect4027-8" width="1.312" height="1.668" x="20.777" y="-130.541" transform="rotate(90)"/><rect style="fill:#b68b2d" id="rect4035-6" width="1.312" height="1.668" x="27.977" y="-130.541" transform="rotate(90)"/><rect style="fill:#b68b2d" id="rect4043-6" width="1.312" height="1.668" x="35.177" y="-130.541" transform="rotate(90)"/><rect style="fill:#b68b2d" id="rect4051-9" width="1.312" height="1.668" x="42.378" y="-130.541" transform="rotate(90)"/><rect style="fill:#b68b2d" id="rect4059-1" width="1.312" height="1.668" x="49.577" y="-130.541" transform="rotate(90)"/><rect style="fill:#b68b2d" id="rect4067-4" width="1.312" height="1.668" x="56.778" y="-130.541" transform="rotate(90)"/><rect style="fill:#b68b2d" id="rect4075-7" width="1.312" height="1.668" x="63.979" y="-130.541" transform="rotate(90)"/><text xml:space="preserve" style="font-style:normal;font-weight:400;font-size:5.33333349px;line-height:125%;font-family:Sans;letter-spacing:0;word-spacing:0;fill:#000;fill-opacity:1;stroke:none;stroke-width:1px;stroke-linecap:butt;stroke-linejoin:miter;stroke-opacity:1" id="text4881-88" x="140.573" y="52.649"><tspan id="tspan4879-897" x="140.573" y="52.649">5V</tspan></text><text xml:space="preserve" style="font-style:normal;font-weight:400;font-size:5.33333349px;line-height:125%;font-family:Sans;letter-spacing:0;word-spacing:0;fill:#000;fill-opacity:1;stroke:none;stroke-width:1px;stroke-linecap:butt;stroke-linejoin:miter;stroke-opacity:1" id="text4881-88-7" x="140.573" y="22.918"><tspan id="tspan4879-897-6" x="140.573" y="22.918">TXD</tspan></text><text xml:space="preserve" style="font-style:normal;font-weight:400;font-size:5.33333349px;line-height:125%;font-family:Sans;letter-spacing:0;word-spacing:0;fill:#000;fill-opacity:1;stroke:none;stroke-width:1px;stroke-linecap:butt;stroke-linejoin:miter;stroke-opacity:1" id="text4881-88-4" x="140.573" y="30.351"><tspan id="tspan4879-897-3" x="140.573" y="30.351">RXD</tspan></text><text xml:space="preserve" style="font-style:normal;font-weight:400;font-size:5.33333349px;line-height:125%;font-family:Sans;letter-spacing:0;word-spacing:0;fill:#000;fill-opacity:1;stroke:none;stroke-width:1px;stroke-linecap:butt;stroke-linejoin:miter;stroke-opacity:1" id="text4881-88-0" x="140.573" y="37.854"><tspan id="tspan4879-897-30" x="140.573" y="37.854">GND</tspan></text><text xml:space="preserve" style="font-style:normal;font-weight:400;font-size:5.33333349px;line-height:125%;font-family:Sans;letter-spacing:0;word-spacing:0;fill:#000;fill-opacity:1;stroke:none;stroke-width:1px;stroke-linecap:butt;stroke-linejoin:miter;stroke-opacity:1" id="text4881-88-9" x="140.573" y="45.287"><tspan id="tspan4879-897-2" x="140.573" y="45.287">2,5um</tspan></text><text xml:space="preserve" style="font-style:normal;font-weight:400;font-size:5.33333349px;line-height:125%;font-family:Sans;letter-spacing:0;word-spacing:0;fill:#000;fill-opacity:1;stroke:none;stroke-width:1px;stroke-linecap:butt;stroke-linejoin:miter;stroke-opacity:1" id="text4881-88-5" x="140.573" y="60.082"><tspan id="tspan4879-897-4" x="140.573" y="60.082">1um</tspan></text><text xml:space="preserve" style="font-style:normal;font-weight:400;font-size:5.33333349px;line-height:125%;font-family:Sans;letter-spacing:0;word-spacing:0;fill:#000;fill-opacity:1;stroke:none;stroke-width:1px;stroke-linecap:butt;stroke-linejoin:miter;stroke-opacity:1" id="text4881-88-05" x="140.573" y="67.585"><tspan id="tspan4879-897-9" x="140.573" y="67.585">NC</tspan></text><rect style="opacity:1;fill:none;fill-opacity:1;fill-rule:evenodd;stroke:#000;stroke-width:.98932189;stroke-linecap:square;stroke-linejoin:miter;stroke-miterlimit:2.6500001;stroke-dasharray:none;stroke-dashoffset:0;stroke-opacity:1" id="rect6666" width="11.587" height="51.694" x="124.955" y="17.497"/><text xml:space="preserve" style="font-style:normal;font-weight:400;font-size:10.66666698px;line-height:125%;font-family:Sans;letter-spacing:0;word-spacing:0;fill:#000;fill-opacity:1;stroke:none;stroke-width:1px;stroke-linecap:butt;stroke-linejoin:miter;stroke-opacity:1" id="text6694" x="123.465" y="81.321"><tspan id="tspan6692" x="123.465" y="81.321">SDS011</tspan></text><path style="fill:none;fill-rule:evenodd;stroke:#000;stroke-width:1px;stroke-linecap:butt;stroke-linejoin:miter;stroke-opacity:1" id="path6727" d="m 21.841712,84.200409 c -4.873391,0 -9.748783,0 -14.623174,0 0,0 0,-48.503652 0,-48.503652 41.107631,-0.173109 82.216263,-0.346222 123.322892,-0.519326"/><path style="fill:none;fill-rule:evenodd;stroke:#000;stroke-width:1px;stroke-linecap:butt;stroke-linejoin:miter;stroke-opacity:1" id="path6731" d="m 21.841712,91.400408 c -7.112904,0 -14.227808,0 -21.341712,0 0,0 0,-41.93685 0,-41.93685 43.347143,0.03796 86.695286,0.07592 130.04143,0.113878"/><path style="fill:none;fill-rule:evenodd;stroke:#000;stroke-width:1px;stroke-linecap:butt;stroke-linejoin:miter;stroke-opacity:1" id="path6735" d="m 86.415707,83.970407 c 2.96444,0 5.926887,0 8.89033,0 0,0 0.1493,-63.203735 0.1493,-63.203735 11.695363,0.0036 23.391733,0.0072 35.086093,0.01076 M 86.415707,91.170408 c 5.35326,0 10.704515,0 16.056773,0 0,0 0.4479,-63.445685 0.4479,-63.445685 9.20702,0.08424 18.41502,0.168483 27.62105,0.252711"/><path style="fill:none;fill-rule:evenodd;stroke:#000;stroke-width:1px;stroke-linecap:butt;stroke-linejoin:miter;stroke-opacity:1" id="path6739" d="m 86.415707,112.77141 c 2.76538,0 5.528753,0 8.29313,0 0,0 8.612203,7.11919 8.612203,7.11919 0,0 27.13117,0.49142 27.13117,0.49142"/><path style="fill:none;fill-rule:evenodd;stroke:#000;stroke-width:1px;stroke-linecap:butt;stroke-linejoin:miter;stroke-opacity:1" id="path6739-4" d="m 86.415707,119.97241 c 2.945717,-0.0188 5.889407,-0.0375 8.83411,-0.0563 0,0 8.015003,-6.82059 8.015003,-6.82059 0,0 27.18739,0.0855 27.18739,0.0855"/><path style="fill:none;fill-rule:evenodd;stroke:#000;stroke-width:1px;stroke-linecap:butt;stroke-linejoin:miter;stroke-opacity:1" id="path7615" d="m 138.19915,69.677284 c 0,0 0,-58.275546 0,-58.275546 0,0 0,-11.401738 0,-11.401738"/></svg>